<?xml version="1.0" standalone="no"?>
<!DOCTYPE svg PUBLIC "-//W3C//DTD SVG 20010904//EN"
 "http://www.w3.org/TR/2001/REC-SVG-20010904/DTD/svg10.dtd">
<svg version="1.0" xmlns="http://www.w3.org/2000/svg"
 width="1826.000000pt" height="1026.000000pt" viewBox="0 0 1826.000000 1026.000000"
 preserveAspectRatio="xMidYMid meet">

<g transform="translate(0.000000,1026.000000) scale(0.100000,-0.100000)"
fill="#000000" stroke="none">
<path d="M8480 5130 l0 -5130 650 0 650 0 0 5130 0 5130 -650 0 -650 0 0
-5130z"/>
<path d="M0 5130 l0 -3100 3098 2 3097 3 3 618 2 617 -2480 0 -2480 0 0 1860
0 1860 2480 0 2479 0 1 604 c0 332 -3 611 -6 620 -6 15 -260 16 -3100 16
l-3094 0 0 -3100z"/>
<path d="M12068 5140 c-2 -1700 -1 -3095 0 -3100 3 -7 1044 -10 3098 -10
l3094 0 0 3100 0 3100 -3095 0 -3095 0 -2 -3090z m4952 -10 l0 -1860 -1860 0
-1860 0 0 1860 0 1860 1860 0 1860 0 0 -1860z"/>
</g>
</svg>
